# xmcd CD database file
#
# Track frame offsets:
#	150
#	10652
#	23320
#	36730
#	47895
#	60777
#	71417
#	83442
#	96277
#	107320
#	118267
#	128307
#
# Disc length: 1861 seconds
#
# Revision: 1
# Processed by: cddbd v1.5.1PL0 Copyright (c) Steve Scherf et al.
# Submitted via: CDex 1.51
#
DISCID=8307430c
DTITLE=The Impressions - People Get Ready
DYEAR=1900
DGENRE=
TTITLE0=Woman's Got Soul
TTITLE1=Emotions
TTITLE2=Sometimes I Wonder
TTITLE3=We're In Love
TTITLE4=Just Another Dance
TTITLE5=Can't Work No Longer
TTITLE6=People Get Ready
TTITLE7=I've Found That I've Lost
TTITLE8=Hard To Believe
TTITLE9=See The Real Me
TTITLE10=Get Up And Move
TTITLE11=You Must Believe Me
EXTD=
EXTT0=
EXTT1=
EXTT2=
EXTT3=
EXTT4=
EXTT5=
EXTT6=
EXTT7=
EXTT8=
EXTT9=
EXTT10=
EXTT11=
PLAYORDER=
